<mxfile host="app.diagrams.net" modified="2025-02-23T21:44:24.549Z" agent="Mozilla/5.0 (Windows NT 10.0; Win64; x64) AppleWebKit/537.36 (KHTML, like Gecko) Chrome/133.0.0.0 Safari/537.36" etag="u5UvytW0FjlBnrXAtU7m" version="24.3.0" type="device">
  <diagram name="Страница — 1" id="2PJm0SNak5wCUza1YK8Q">
    <mxGraphModel dx="880" dy="810" grid="1" gridSize="10" guides="1" tooltips="1" connect="1" arrows="1" fold="1" page="1" pageScale="1" pageWidth="1800" pageHeight="1800" math="0" shadow="0">
      <root>
        <mxCell id="0" />
        <mxCell id="1" parent="0" />
        <mxCell id="YS4OgWSnTCvzOmMy7UN--3" value="" style="edgeStyle=orthogonalEdgeStyle;rounded=0;orthogonalLoop=1;jettySize=auto;html=1;" edge="1" parent="1" source="YS4OgWSnTCvzOmMy7UN--1" target="YS4OgWSnTCvzOmMy7UN--2">
          <mxGeometry relative="1" as="geometry" />
        </mxCell>
        <mxCell id="YS4OgWSnTCvzOmMy7UN--1" value="&lt;font style=&quot;font-size: 14px;&quot;&gt;start&lt;/font&gt;" style="text;html=1;align=center;verticalAlign=middle;whiteSpace=wrap;rounded=0;" vertex="1" parent="1">
          <mxGeometry x="80" y="400" width="60" height="30" as="geometry" />
        </mxCell>
        <mxCell id="YS4OgWSnTCvzOmMy7UN--5" value="" style="edgeStyle=orthogonalEdgeStyle;rounded=0;orthogonalLoop=1;jettySize=auto;html=1;" edge="1" parent="1" source="YS4OgWSnTCvzOmMy7UN--2" target="YS4OgWSnTCvzOmMy7UN--4">
          <mxGeometry relative="1" as="geometry" />
        </mxCell>
        <mxCell id="YS4OgWSnTCvzOmMy7UN--6" value="&lt;font style=&quot;font-size: 14px;&quot;&gt;insert coin&lt;/font&gt;" style="edgeLabel;html=1;align=center;verticalAlign=middle;resizable=0;points=[];" vertex="1" connectable="0" parent="YS4OgWSnTCvzOmMy7UN--5">
          <mxGeometry x="0.0333" y="4" relative="1" as="geometry">
            <mxPoint x="-5" y="4" as="offset" />
          </mxGeometry>
        </mxCell>
        <mxCell id="YS4OgWSnTCvzOmMy7UN--2" value="&lt;font style=&quot;font-size: 14px;&quot;&gt;Waiting&lt;/font&gt;" style="ellipse;whiteSpace=wrap;html=1;aspect=fixed;" vertex="1" parent="1">
          <mxGeometry x="160" y="375" width="80" height="80" as="geometry" />
        </mxCell>
        <mxCell id="YS4OgWSnTCvzOmMy7UN--8" value="" style="edgeStyle=orthogonalEdgeStyle;rounded=0;orthogonalLoop=1;jettySize=auto;html=1;" edge="1" parent="1" source="YS4OgWSnTCvzOmMy7UN--4" target="YS4OgWSnTCvzOmMy7UN--7">
          <mxGeometry relative="1" as="geometry" />
        </mxCell>
        <mxCell id="YS4OgWSnTCvzOmMy7UN--17" value="&lt;font style=&quot;font-size: 14px;&quot;&gt;select item&lt;/font&gt;" style="edgeLabel;html=1;align=center;verticalAlign=middle;resizable=0;points=[];" vertex="1" connectable="0" parent="YS4OgWSnTCvzOmMy7UN--8">
          <mxGeometry x="-0.025" relative="1" as="geometry">
            <mxPoint x="-3" as="offset" />
          </mxGeometry>
        </mxCell>
        <mxCell id="YS4OgWSnTCvzOmMy7UN--4" value="&lt;font style=&quot;font-size: 14px;&quot;&gt;Payment&lt;/font&gt;" style="ellipse;whiteSpace=wrap;html=1;aspect=fixed;" vertex="1" parent="1">
          <mxGeometry x="330" y="375" width="80" height="80" as="geometry" />
        </mxCell>
        <mxCell id="YS4OgWSnTCvzOmMy7UN--19" value="" style="edgeStyle=orthogonalEdgeStyle;rounded=0;orthogonalLoop=1;jettySize=auto;html=1;" edge="1" parent="1" source="YS4OgWSnTCvzOmMy7UN--7" target="YS4OgWSnTCvzOmMy7UN--18">
          <mxGeometry relative="1" as="geometry" />
        </mxCell>
        <mxCell id="YS4OgWSnTCvzOmMy7UN--22" value="&lt;font style=&quot;font-size: 14px;&quot;&gt;purchase (ok)&lt;/font&gt;" style="edgeLabel;html=1;align=center;verticalAlign=middle;resizable=0;points=[];" vertex="1" connectable="0" parent="YS4OgWSnTCvzOmMy7UN--19">
          <mxGeometry x="0.025" y="1" relative="1" as="geometry">
            <mxPoint x="-3" as="offset" />
          </mxGeometry>
        </mxCell>
        <mxCell id="YS4OgWSnTCvzOmMy7UN--24" value="" style="edgeStyle=orthogonalEdgeStyle;rounded=0;orthogonalLoop=1;jettySize=auto;html=1;" edge="1" parent="1" source="YS4OgWSnTCvzOmMy7UN--7" target="YS4OgWSnTCvzOmMy7UN--23">
          <mxGeometry relative="1" as="geometry" />
        </mxCell>
        <mxCell id="YS4OgWSnTCvzOmMy7UN--25" value="&lt;font style=&quot;font-size: 14px;&quot;&gt;purchase (not ok)&lt;/font&gt;" style="edgeLabel;html=1;align=center;verticalAlign=middle;resizable=0;points=[];" vertex="1" connectable="0" parent="YS4OgWSnTCvzOmMy7UN--24">
          <mxGeometry x="-0.305" y="-2" relative="1" as="geometry">
            <mxPoint as="offset" />
          </mxGeometry>
        </mxCell>
        <mxCell id="YS4OgWSnTCvzOmMy7UN--28" style="edgeStyle=orthogonalEdgeStyle;rounded=0;orthogonalLoop=1;jettySize=auto;html=1;exitX=1;exitY=1;exitDx=0;exitDy=0;entryX=0.5;entryY=0;entryDx=0;entryDy=0;" edge="1" parent="1" source="YS4OgWSnTCvzOmMy7UN--7" target="YS4OgWSnTCvzOmMy7UN--26">
          <mxGeometry relative="1" as="geometry" />
        </mxCell>
        <mxCell id="YS4OgWSnTCvzOmMy7UN--29" value="&lt;font style=&quot;font-size: 14px;&quot;&gt;cancel&lt;/font&gt;" style="edgeLabel;html=1;align=center;verticalAlign=middle;resizable=0;points=[];" vertex="1" connectable="0" parent="YS4OgWSnTCvzOmMy7UN--28">
          <mxGeometry x="-0.3979" y="-2" relative="1" as="geometry">
            <mxPoint y="-5" as="offset" />
          </mxGeometry>
        </mxCell>
        <mxCell id="YS4OgWSnTCvzOmMy7UN--7" value="&lt;font style=&quot;font-size: 14px;&quot;&gt;Item selected&lt;/font&gt;" style="ellipse;whiteSpace=wrap;html=1;aspect=fixed;" vertex="1" parent="1">
          <mxGeometry x="510" y="375" width="80" height="80" as="geometry" />
        </mxCell>
        <mxCell id="YS4OgWSnTCvzOmMy7UN--34" style="edgeStyle=orthogonalEdgeStyle;rounded=0;orthogonalLoop=1;jettySize=auto;html=1;exitX=1;exitY=0.5;exitDx=0;exitDy=0;entryX=0.5;entryY=0;entryDx=0;entryDy=0;" edge="1" parent="1" source="YS4OgWSnTCvzOmMy7UN--18" target="YS4OgWSnTCvzOmMy7UN--31">
          <mxGeometry relative="1" as="geometry" />
        </mxCell>
        <mxCell id="YS4OgWSnTCvzOmMy7UN--37" value="&lt;font style=&quot;font-size: 14px;&quot;&gt;give change&lt;/font&gt;" style="edgeLabel;html=1;align=center;verticalAlign=middle;resizable=0;points=[];" vertex="1" connectable="0" parent="YS4OgWSnTCvzOmMy7UN--34">
          <mxGeometry x="-0.6086" relative="1" as="geometry">
            <mxPoint x="46" y="35" as="offset" />
          </mxGeometry>
        </mxCell>
        <mxCell id="YS4OgWSnTCvzOmMy7UN--18" value="&lt;font style=&quot;font-size: 14px;&quot;&gt;Dispense&lt;/font&gt;" style="ellipse;whiteSpace=wrap;html=1;" vertex="1" parent="1">
          <mxGeometry x="720" y="375" width="80" height="80" as="geometry" />
        </mxCell>
        <mxCell id="YS4OgWSnTCvzOmMy7UN--27" value="" style="edgeStyle=orthogonalEdgeStyle;rounded=0;orthogonalLoop=1;jettySize=auto;html=1;" edge="1" parent="1" source="YS4OgWSnTCvzOmMy7UN--23" target="YS4OgWSnTCvzOmMy7UN--26">
          <mxGeometry relative="1" as="geometry" />
        </mxCell>
        <mxCell id="YS4OgWSnTCvzOmMy7UN--30" value="&lt;font style=&quot;font-size: 14px;&quot;&gt;cancel&lt;/font&gt;" style="edgeLabel;html=1;align=center;verticalAlign=middle;resizable=0;points=[];" vertex="1" connectable="0" parent="YS4OgWSnTCvzOmMy7UN--27">
          <mxGeometry x="-0.2667" y="-1" relative="1" as="geometry">
            <mxPoint x="5" y="-1" as="offset" />
          </mxGeometry>
        </mxCell>
        <mxCell id="YS4OgWSnTCvzOmMy7UN--23" value="&lt;font style=&quot;font-size: 14px;&quot;&gt;Error&lt;/font&gt;" style="ellipse;whiteSpace=wrap;html=1;" vertex="1" parent="1">
          <mxGeometry x="510" y="510" width="80" height="80" as="geometry" />
        </mxCell>
        <mxCell id="YS4OgWSnTCvzOmMy7UN--32" value="" style="edgeStyle=orthogonalEdgeStyle;rounded=0;orthogonalLoop=1;jettySize=auto;html=1;" edge="1" parent="1" source="YS4OgWSnTCvzOmMy7UN--26" target="YS4OgWSnTCvzOmMy7UN--31">
          <mxGeometry relative="1" as="geometry" />
        </mxCell>
        <mxCell id="YS4OgWSnTCvzOmMy7UN--33" value="&lt;font style=&quot;font-size: 14px;&quot;&gt;give change&lt;/font&gt;" style="edgeLabel;html=1;align=center;verticalAlign=middle;resizable=0;points=[];" vertex="1" connectable="0" parent="YS4OgWSnTCvzOmMy7UN--32">
          <mxGeometry x="0.125" y="2" relative="1" as="geometry">
            <mxPoint x="-12" y="2" as="offset" />
          </mxGeometry>
        </mxCell>
        <mxCell id="YS4OgWSnTCvzOmMy7UN--26" value="&lt;font style=&quot;font-size: 14px;&quot;&gt;Cancelling&lt;/font&gt;" style="ellipse;whiteSpace=wrap;html=1;" vertex="1" parent="1">
          <mxGeometry x="660" y="510" width="80" height="80" as="geometry" />
        </mxCell>
        <mxCell id="YS4OgWSnTCvzOmMy7UN--40" style="edgeStyle=orthogonalEdgeStyle;rounded=0;orthogonalLoop=1;jettySize=auto;html=1;exitX=1;exitY=0.5;exitDx=0;exitDy=0;entryX=0.5;entryY=0;entryDx=0;entryDy=0;" edge="1" parent="1" source="YS4OgWSnTCvzOmMy7UN--31" target="YS4OgWSnTCvzOmMy7UN--2">
          <mxGeometry relative="1" as="geometry">
            <mxPoint x="200" y="310" as="targetPoint" />
            <Array as="points">
              <mxPoint x="961" y="550" />
              <mxPoint x="961" y="330" />
              <mxPoint x="200" y="330" />
            </Array>
          </mxGeometry>
        </mxCell>
        <mxCell id="YS4OgWSnTCvzOmMy7UN--42" value="&lt;font style=&quot;font-size: 14px;&quot;&gt;reset&lt;/font&gt;" style="edgeLabel;html=1;align=center;verticalAlign=middle;resizable=0;points=[];" vertex="1" connectable="0" parent="YS4OgWSnTCvzOmMy7UN--40">
          <mxGeometry x="0.2067" y="1" relative="1" as="geometry">
            <mxPoint y="-1" as="offset" />
          </mxGeometry>
        </mxCell>
        <mxCell id="YS4OgWSnTCvzOmMy7UN--31" value="&lt;font style=&quot;font-size: 14px;&quot;&gt;Refund&lt;/font&gt;" style="ellipse;whiteSpace=wrap;html=1;" vertex="1" parent="1">
          <mxGeometry x="840" y="510" width="80" height="80" as="geometry" />
        </mxCell>
      </root>
    </mxGraphModel>
  </diagram>
</mxfile>
